<?xml version="1.0" encoding="UTF-8" standalone="no"?>
<!DOCTYPE svg PUBLIC "-//W3C//DTD SVG 1.1//EN"
 "http://www.w3.org/Graphics/SVG/1.1/DTD/svg11.dtd">
<!-- Generated by graphviz version 2.43.0 (0)
 -->
<!-- Title: %3 Pages: 1 -->
<svg width="1682pt" height="210pt"
 viewBox="0.00 0.00 1681.69 210.00" xmlns="http://www.w3.org/2000/svg" xmlns:xlink="http://www.w3.org/1999/xlink">
<g id="graph0" class="graph" transform="scale(1 1) rotate(0) translate(4 206)">
<title>%3</title>
<polygon fill="white" stroke="transparent" points="-4,4 -4,-206 1677.69,-206 1677.69,4 -4,4"/>
<!-- 140261652892784 -->
<g id="node1" class="node">
<title>140261652892784</title>
<polygon fill="none" stroke="black" points="360.5,-165.5 360.5,-201.5 587.5,-201.5 587.5,-165.5 360.5,-165.5"/>
<text text-anchor="middle" x="371" y="-179.8" font-family="Times,serif" font-size="14.00"> </text>
<polyline fill="none" stroke="black" points="381.5,-165.5 381.5,-201.5 "/>
<text text-anchor="middle" x="432.5" y="-179.8" font-family="Times,serif" font-size="14.00">data 2.0000</text>
<polyline fill="none" stroke="black" points="483.5,-165.5 483.5,-201.5 "/>
<text text-anchor="middle" x="535.5" y="-179.8" font-family="Times,serif" font-size="14.00">grad 0.0000</text>
</g>
<!-- 140261652892832* -->
<g id="node3" class="node">
<title>140261652892832*</title>
<ellipse fill="none" stroke="black" cx="653" cy="-128.5" rx="27" ry="18"/>
<text text-anchor="middle" x="653" y="-124.8" font-family="Times,serif" font-size="14.00">*</text>
</g>
<!-- 140261652892784&#45;&gt;140261652892832* -->
<g id="edge11" class="edge">
<title>140261652892784&#45;&gt;140261652892832*</title>
<path fill="none" stroke="black" d="M560.31,-165.43C570.4,-162.72 580.48,-159.73 590,-156.5 600.68,-152.87 612.02,-148.06 622.04,-143.44"/>
<polygon fill="black" stroke="black" points="623.63,-146.56 631.17,-139.13 620.64,-140.23 623.63,-146.56"/>
</g>
<!-- 140261652892832 -->
<g id="node2" class="node">
<title>140261652892832</title>
<polygon fill="none" stroke="black" points="716,-110.5 716,-146.5 948,-146.5 948,-110.5 716,-110.5"/>
<text text-anchor="middle" x="726.5" y="-124.8" font-family="Times,serif" font-size="14.00"> </text>
<polyline fill="none" stroke="black" points="737,-110.5 737,-146.5 "/>
<text text-anchor="middle" x="790.5" y="-124.8" font-family="Times,serif" font-size="14.00">data &#45;1.7675</text>
<polyline fill="none" stroke="black" points="844,-110.5 844,-146.5 "/>
<text text-anchor="middle" x="896" y="-124.8" font-family="Times,serif" font-size="14.00">grad 0.0000</text>
</g>
<!-- 140261652893024+ -->
<g id="node10" class="node">
<title>140261652893024+</title>
<ellipse fill="none" stroke="black" cx="1011" cy="-100.5" rx="27" ry="18"/>
<text text-anchor="middle" x="1011" y="-96.8" font-family="Times,serif" font-size="14.00">+</text>
</g>
<!-- 140261652892832&#45;&gt;140261652893024+ -->
<g id="edge12" class="edge">
<title>140261652892832&#45;&gt;140261652893024+</title>
<path fill="none" stroke="black" d="M947.1,-110.45C956.88,-108.9 966.21,-107.43 974.54,-106.11"/>
<polygon fill="black" stroke="black" points="975.19,-109.55 984.52,-104.53 974.1,-102.64 975.19,-109.55"/>
</g>
<!-- 140261652892832*&#45;&gt;140261652892832 -->
<g id="edge1" class="edge">
<title>140261652892832*&#45;&gt;140261652892832</title>
<path fill="none" stroke="black" d="M680.12,-128.5C687.53,-128.5 696.14,-128.5 705.4,-128.5"/>
<polygon fill="black" stroke="black" points="705.69,-132 715.69,-128.5 705.69,-125 705.69,-132"/>
</g>
<!-- 140261652892352 -->
<g id="node4" class="node">
<title>140261652892352</title>
<polygon fill="none" stroke="black" points="2.5,-83.5 2.5,-119.5 229.5,-119.5 229.5,-83.5 2.5,-83.5"/>
<text text-anchor="middle" x="13" y="-97.8" font-family="Times,serif" font-size="14.00"> </text>
<polyline fill="none" stroke="black" points="23.5,-83.5 23.5,-119.5 "/>
<text text-anchor="middle" x="74.5" y="-97.8" font-family="Times,serif" font-size="14.00">data 1.0000</text>
<polyline fill="none" stroke="black" points="125.5,-83.5 125.5,-119.5 "/>
<text text-anchor="middle" x="177.5" y="-97.8" font-family="Times,serif" font-size="14.00">grad 0.0000</text>
</g>
<!-- 140261652892400* -->
<g id="node7" class="node">
<title>140261652892400*</title>
<ellipse fill="none" stroke="black" cx="295" cy="-73.5" rx="27" ry="18"/>
<text text-anchor="middle" x="295" y="-69.8" font-family="Times,serif" font-size="14.00">*</text>
</g>
<!-- 140261652892352&#45;&gt;140261652892400* -->
<g id="edge9" class="edge">
<title>140261652892352&#45;&gt;140261652892400*</title>
<path fill="none" stroke="black" d="M229.6,-83.69C239.87,-82.06 249.68,-80.51 258.4,-79.13"/>
<polygon fill="black" stroke="black" points="259.14,-82.56 268.47,-77.54 258.04,-75.64 259.14,-82.56"/>
</g>
<!-- 140261652891872 -->
<g id="node5" class="node">
<title>140261652891872</title>
<polygon fill="none" stroke="black" points="0,-28.5 0,-64.5 232,-64.5 232,-28.5 0,-28.5"/>
<text text-anchor="middle" x="10.5" y="-42.8" font-family="Times,serif" font-size="14.00"> </text>
<polyline fill="none" stroke="black" points="21,-28.5 21,-64.5 "/>
<text text-anchor="middle" x="74.5" y="-42.8" font-family="Times,serif" font-size="14.00">data &#45;0.1886</text>
<polyline fill="none" stroke="black" points="128,-28.5 128,-64.5 "/>
<text text-anchor="middle" x="180" y="-42.8" font-family="Times,serif" font-size="14.00">grad 0.0000</text>
</g>
<!-- 140261652891872&#45;&gt;140261652892400* -->
<g id="edge6" class="edge">
<title>140261652891872&#45;&gt;140261652892400*</title>
<path fill="none" stroke="black" d="M232.09,-64.06C241.46,-65.49 250.39,-66.85 258.4,-68.07"/>
<polygon fill="black" stroke="black" points="257.96,-71.54 268.37,-69.59 259.01,-64.62 257.96,-71.54"/>
</g>
<!-- 140261652892400 -->
<g id="node6" class="node">
<title>140261652892400</title>
<polygon fill="none" stroke="black" points="358,-55.5 358,-91.5 590,-91.5 590,-55.5 358,-55.5"/>
<text text-anchor="middle" x="368.5" y="-69.8" font-family="Times,serif" font-size="14.00"> </text>
<polyline fill="none" stroke="black" points="379,-55.5 379,-91.5 "/>
<text text-anchor="middle" x="432.5" y="-69.8" font-family="Times,serif" font-size="14.00">data &#45;0.1886</text>
<polyline fill="none" stroke="black" points="486,-55.5 486,-91.5 "/>
<text text-anchor="middle" x="538" y="-69.8" font-family="Times,serif" font-size="14.00">grad 0.0000</text>
</g>
<!-- 140261652892592+ -->
<g id="node13" class="node">
<title>140261652892592+</title>
<ellipse fill="none" stroke="black" cx="653" cy="-73.5" rx="27" ry="18"/>
<text text-anchor="middle" x="653" y="-69.8" font-family="Times,serif" font-size="14.00">+</text>
</g>
<!-- 140261652892400&#45;&gt;140261652892592+ -->
<g id="edge7" class="edge">
<title>140261652892400&#45;&gt;140261652892592+</title>
<path fill="none" stroke="black" d="M590.09,-73.5C599.17,-73.5 607.84,-73.5 615.66,-73.5"/>
<polygon fill="black" stroke="black" points="615.76,-77 625.76,-73.5 615.76,-70 615.76,-77"/>
</g>
<!-- 140261652892400*&#45;&gt;140261652892400 -->
<g id="edge2" class="edge">
<title>140261652892400*&#45;&gt;140261652892400</title>
<path fill="none" stroke="black" d="M322.12,-73.5C329.53,-73.5 338.14,-73.5 347.4,-73.5"/>
<polygon fill="black" stroke="black" points="347.69,-77 357.69,-73.5 347.69,-70 347.69,-77"/>
</g>
<!-- 140261652891968 -->
<g id="node8" class="node">
<title>140261652891968</title>
<polygon fill="none" stroke="black" points="358,-110.5 358,-146.5 590,-146.5 590,-110.5 358,-110.5"/>
<text text-anchor="middle" x="368.5" y="-124.8" font-family="Times,serif" font-size="14.00"> </text>
<polyline fill="none" stroke="black" points="379,-110.5 379,-146.5 "/>
<text text-anchor="middle" x="432.5" y="-124.8" font-family="Times,serif" font-size="14.00">data &#45;0.8838</text>
<polyline fill="none" stroke="black" points="486,-110.5 486,-146.5 "/>
<text text-anchor="middle" x="538" y="-124.8" font-family="Times,serif" font-size="14.00">grad 0.0000</text>
</g>
<!-- 140261652891968&#45;&gt;140261652892832* -->
<g id="edge14" class="edge">
<title>140261652891968&#45;&gt;140261652892832*</title>
<path fill="none" stroke="black" d="M590.09,-128.5C599.17,-128.5 607.84,-128.5 615.66,-128.5"/>
<polygon fill="black" stroke="black" points="615.76,-132 625.76,-128.5 615.76,-125 615.76,-132"/>
</g>
<!-- 140261652893024 -->
<g id="node9" class="node">
<title>140261652893024</title>
<polygon fill="none" stroke="black" points="1074,-82.5 1074,-118.5 1306,-118.5 1306,-82.5 1074,-82.5"/>
<text text-anchor="middle" x="1084.5" y="-96.8" font-family="Times,serif" font-size="14.00"> </text>
<polyline fill="none" stroke="black" points="1095,-82.5 1095,-118.5 "/>
<text text-anchor="middle" x="1148.5" y="-96.8" font-family="Times,serif" font-size="14.00">data &#45;1.9561</text>
<polyline fill="none" stroke="black" points="1202,-82.5 1202,-118.5 "/>
<text text-anchor="middle" x="1254" y="-96.8" font-family="Times,serif" font-size="14.00">grad 0.0000</text>
</g>
<!-- 140261652893120tanh -->
<g id="node15" class="node">
<title>140261652893120tanh</title>
<ellipse fill="none" stroke="black" cx="1373.85" cy="-100.5" rx="31.7" ry="18"/>
<text text-anchor="middle" x="1373.85" y="-96.8" font-family="Times,serif" font-size="14.00">tanh</text>
</g>
<!-- 140261652893024&#45;&gt;140261652893120tanh -->
<g id="edge8" class="edge">
<title>140261652893024&#45;&gt;140261652893120tanh</title>
<path fill="none" stroke="black" d="M1306.17,-100.5C1315.08,-100.5 1323.66,-100.5 1331.53,-100.5"/>
<polygon fill="black" stroke="black" points="1331.78,-104 1341.78,-100.5 1331.78,-97 1331.78,-104"/>
</g>
<!-- 140261652893024+&#45;&gt;140261652893024 -->
<g id="edge3" class="edge">
<title>140261652893024+&#45;&gt;140261652893024</title>
<path fill="none" stroke="black" d="M1038.12,-100.5C1045.53,-100.5 1054.14,-100.5 1063.4,-100.5"/>
<polygon fill="black" stroke="black" points="1063.69,-104 1073.69,-100.5 1063.69,-97 1063.69,-104"/>
</g>
<!-- 140261652892016 -->
<g id="node11" class="node">
<title>140261652892016</title>
<polygon fill="none" stroke="black" points="360.5,-0.5 360.5,-36.5 587.5,-36.5 587.5,-0.5 360.5,-0.5"/>
<text text-anchor="middle" x="371" y="-14.8" font-family="Times,serif" font-size="14.00"> </text>
<polyline fill="none" stroke="black" points="381.5,-0.5 381.5,-36.5 "/>
<text text-anchor="middle" x="432.5" y="-14.8" font-family="Times,serif" font-size="14.00">data 0.0000</text>
<polyline fill="none" stroke="black" points="483.5,-0.5 483.5,-36.5 "/>
<text text-anchor="middle" x="535.5" y="-14.8" font-family="Times,serif" font-size="14.00">grad 0.0000</text>
</g>
<!-- 140261652892016&#45;&gt;140261652892592+ -->
<g id="edge10" class="edge">
<title>140261652892016&#45;&gt;140261652892592+</title>
<path fill="none" stroke="black" d="M560.31,-36.57C570.4,-39.28 580.48,-42.27 590,-45.5 600.68,-49.13 612.02,-53.94 622.04,-58.56"/>
<polygon fill="black" stroke="black" points="620.64,-61.77 631.17,-62.87 623.63,-55.44 620.64,-61.77"/>
</g>
<!-- 140261652892592 -->
<g id="node12" class="node">
<title>140261652892592</title>
<polygon fill="none" stroke="black" points="716,-55.5 716,-91.5 948,-91.5 948,-55.5 716,-55.5"/>
<text text-anchor="middle" x="726.5" y="-69.8" font-family="Times,serif" font-size="14.00"> </text>
<polyline fill="none" stroke="black" points="737,-55.5 737,-91.5 "/>
<text text-anchor="middle" x="790.5" y="-69.8" font-family="Times,serif" font-size="14.00">data &#45;0.1886</text>
<polyline fill="none" stroke="black" points="844,-55.5 844,-91.5 "/>
<text text-anchor="middle" x="896" y="-69.8" font-family="Times,serif" font-size="14.00">grad 0.0000</text>
</g>
<!-- 140261652892592&#45;&gt;140261652893024+ -->
<g id="edge13" class="edge">
<title>140261652892592&#45;&gt;140261652893024+</title>
<path fill="none" stroke="black" d="M948.09,-91.06C957.46,-92.49 966.39,-93.85 974.4,-95.07"/>
<polygon fill="black" stroke="black" points="973.96,-98.54 984.37,-96.59 975.01,-91.62 973.96,-98.54"/>
</g>
<!-- 140261652892592+&#45;&gt;140261652892592 -->
<g id="edge4" class="edge">
<title>140261652892592+&#45;&gt;140261652892592</title>
<path fill="none" stroke="black" d="M680.12,-73.5C687.53,-73.5 696.14,-73.5 705.4,-73.5"/>
<polygon fill="black" stroke="black" points="705.69,-77 715.69,-73.5 705.69,-70 705.69,-77"/>
</g>
<!-- 140261652893120 -->
<g id="node14" class="node">
<title>140261652893120</title>
<polygon fill="none" stroke="black" points="1441.69,-82.5 1441.69,-118.5 1673.69,-118.5 1673.69,-82.5 1441.69,-82.5"/>
<text text-anchor="middle" x="1452.19" y="-96.8" font-family="Times,serif" font-size="14.00"> </text>
<polyline fill="none" stroke="black" points="1462.69,-82.5 1462.69,-118.5 "/>
<text text-anchor="middle" x="1516.19" y="-96.8" font-family="Times,serif" font-size="14.00">data &#45;0.9608</text>
<polyline fill="none" stroke="black" points="1569.69,-82.5 1569.69,-118.5 "/>
<text text-anchor="middle" x="1621.69" y="-96.8" font-family="Times,serif" font-size="14.00">grad 0.0000</text>
</g>
<!-- 140261652893120tanh&#45;&gt;140261652893120 -->
<g id="edge5" class="edge">
<title>140261652893120tanh&#45;&gt;140261652893120</title>
<path fill="none" stroke="black" d="M1405.7,-100.5C1413.36,-100.5 1422.06,-100.5 1431.31,-100.5"/>
<polygon fill="black" stroke="black" points="1431.55,-104 1441.55,-100.5 1431.55,-97 1431.55,-104"/>
</g>
</g>
</svg>
